<?xml version="1.0" encoding="UTF-8"?>
<svg xmlns="http://www.w3.org/2000/svg" xmlns:xlink="http://www.w3.org/1999/xlink" viewBox="0 0 1845.6 3330.71">
  <g id="fondo">
    <image id="Fondo_Imagen" data-name="Fondo Imagen" width="7690" height="10000" transform="scale(.24)" xlink:href="../../../../../../../../../../../../Users/jessica/Downloads/Navidad.png"/>
  </g>
  <g id="capa">
    <rect y="2339.51" width="1845.6" height="991.2" style="fill: #00253f;"/>
  </g>
  <g id="pino1">
    <image id="pino1_Imagen" data-name="pino1 Imagen" width="5634" height="7616" transform="translate(322.08 381.59) scale(.24)" xlink:href="arma_tu_pino1.png"/>
  </g>
  <g id="pino2">
    <image id="pino2_Imagen" data-name="pino2 Imagen" width="5664" height="7616" transform="translate(322.08 381.59) scale(.24)" xlink:href="arma_tu_pino2.png"/>
  </g>
  <g id="pino3">
    <image id="Imagen_42_Imagen" data-name="Imagen 42 Imagen" width="5634" height="7616" transform="translate(322.08 381.59) scale(.24)" xlink:href="arma_tu_pino3.png"/>
  </g>
  <g id="decoraciones_1">
    <g>
      <image id="_1pieza20" data-name="1pieza20" width="396" height="521" transform="translate(501.84 2677.43) scale(.24)" xlink:href="arma_tu_pino4.png"/>
      <image id="_1pieza19" data-name="1pieza19" width="433" height="537" transform="translate(1115.52 2434.31) scale(.24)" xlink:href="arma_tu_pino5.png"/>
      <image id="_1pieza18" data-name="1pieza18" width="349" height="433" transform="translate(769.92 2890.79) scale(.24)" xlink:href="arma_tu_pino6.png"/>
      <image id="_1pieza17" data-name="1pieza17" width="449" height="591" transform="translate(680.64 2427.83) scale(.24)" xlink:href="arma_tu_pino7.png"/>
      <image id="_1pieza16" data-name="1pieza16" width="382" height="503" transform="translate(692.88 2684.15) scale(.24)" xlink:href="arma_tu_pino8.png"/>
      <image id="_1pieza15" data-name="1pieza15" width="449" height="591" transform="translate(1015.2 2837.27) scale(.24)" xlink:href="arma_tu_pino9.png"/>
      <image id="_1pieza14" data-name="1pieza14" width="345" height="453" transform="translate(890.64 2690.15) scale(.24)" xlink:href="arma_tu_pino10.png"/>
      <image id="_1pieza13" data-name="1pieza13" width="593" height="736" transform="translate(880.8 2415.11) scale(.24)" xlink:href="arma_tu_pino11.png"/>
      <image id="_1pieza12" data-name="1pieza12" width="444" height="552" transform="translate(503.04 2415.11) scale(.24)" xlink:href="arma_tu_pino12.png"/>
      <image id="_1pieza11" data-name="1pieza11" width="349" height="433" transform="translate(546.72 2890.79) scale(.24)" xlink:href="arma_tu_pino13.png"/>
      <image id="_1pieza10" data-name="1pieza10" width="593" height="736" transform="translate(242.88 2802.47) scale(.24)" xlink:href="arma_tu_pino14.png"/>
      <image id="_1pieza9" data-name="1pieza9" width="554" height="643" transform="translate(242.88 3084.23) scale(.24)" xlink:href="arma_tu_pino15.png"/>
      <image id="_1pieza8" data-name="1pieza8" width="521" height="571" transform="translate(535.44 3061.91) scale(.24)" xlink:href="arma_tu_pino16.png"/>
      <image id="_1pieza7" data-name="1pieza7" width="645" height="689" transform="translate(836.64 3084.23) scale(.24)" xlink:href="arma_tu_pino17.png"/>
      <image id="_1pieza6" data-name="1pieza6" width="638" height="735" transform="translate(1167.6 3042.23) scale(.24)" xlink:href="arma_tu_pino18.png"/>
      <image id="_1pieza5" data-name="1pieza5" width="637" height="736" transform="translate(1541.04 3061.91) scale(.24)" xlink:href="arma_tu_pino19.png"/>
      <image id="_1pieza4" data-name="1pieza4" width="497" height="824" transform="translate(1574.64 2641.19) scale(.24)" xlink:href="arma_tu_pino20.png"/>
      <image id="_1pieza3" data-name="1pieza3" width="663" height="677" transform="translate(1341.12 2798.87) scale(.24)" xlink:href="arma_tu_pino21.png"/>
      <image id="_1pieza2" data-name="1pieza2" width="461" height="765" transform="translate(1420.56 2449.43) scale(.24)" xlink:href="arma_tu_pino22.png"/>
      <image id="_1pieza1" data-name="1pieza1" width="475" height="787" transform="translate(1152.72 2615.99) scale(.24)" xlink:href="arma_tu_pino23.png"/>
      <image id="estrella1" width="1459" height="1546" transform="translate(151.68 2401.67) scale(.24)" xlink:href="arma_tu_pino24.png"/>
    </g>
  </g>
  <g id="decoraciones_2">
    <g>
      <image id="_2pieza16" data-name="2pieza16" width="998" height="1116" transform="translate(1197.36 2983.43) scale(.24)" xlink:href="arma_tu_pino25.png"/>
      <image id="_2pieza15" data-name="2pieza15" width="998" height="1116" transform="translate(803.04 2983.43) scale(.24)" xlink:href="arma_tu_pino26.png"/>
      <image id="_2pieza14" data-name="2pieza14" width="1016" height="1064" transform="translate(1536.72 2995.91) scale(.24)" xlink:href="arma_tu_pino27.png"/>
      <image id="_2pieza13" data-name="2pieza13" width="1195" height="916" transform="translate(63.36 3031.43) scale(.24)" xlink:href="arma_tu_pino28.png"/>
      <image id="_2pieza12" data-name="2pieza12" width="891" height="997" transform="translate(1566.72 2691.59) scale(.24)" xlink:href="arma_tu_pino29.png"/>
      <image id="_2pieza11" data-name="2pieza11" width="1016" height="1064" transform="translate(459.36 2995.91) scale(.24)" xlink:href="arma_tu_pino30.png"/>
      <image id="_2pieza10" data-name="2pieza10" width="423" height="700" transform="translate(432.96 2456.15) scale(.24)" xlink:href="arma_tu_pino31.png"/>
      <image id="_2pieza9" data-name="2pieza9" width="423" height="700" transform="translate(105.36 2762.87) scale(.24)" xlink:href="arma_tu_pino32.png"/>
      <image id="_2pieza8" data-name="2pieza8" width="533" height="838" transform="translate(286.32 2612.87) scale(.24)" xlink:href="arma_tu_pino33.png"/>
      <image id="_2pieza7" data-name="2pieza7" width="568" height="733" transform="translate(1317.12 2405.27) scale(.24)" xlink:href="arma_tu_pino34.png"/>
      <image id="_2pieza6" data-name="2pieza6" width="558" height="785" transform="translate(1614.48 2405.27) scale(.24)" xlink:href="arma_tu_pino35.png"/>
      <image id="_2pieza5" data-name="2pieza5" width="840" height="975" transform="translate(995.76 2405.27) scale(.24)" xlink:href="arma_tu_pino36.png"/>
      <image id="_2pieza4" data-name="2pieza4" width="943" height="1091" transform="translate(1227.12 2641.91) scale(.24)" xlink:href="arma_tu_pino37.png"/>
      <image id="_2pieza3" data-name="2pieza3" width="647" height="748" transform="translate(483.6 2724.23) scale(.24)" xlink:href="arma_tu_pino38.png"/>
      <image id="_2pieza2" data-name="2pieza2" width="838" height="970" transform="translate(822.24 2670.95) scale(.24)" xlink:href="arma_tu_pino39.png"/>
      <image id="_2pieza1" data-name="2pieza1" width="687" height="793" transform="translate(638.88 2405.27) scale(.24)" xlink:href="arma_tu_pino40.png"/>
      <image id="estrella2" width="1072" height="1215" transform="translate(65.04 2405.27) scale(.24)" xlink:href="arma_tu_pino41.png"/>
    </g>
  </g>
  <g id="decoraciones_3">
    <g>
      <image id="_3pieza22" data-name="3pieza22" width="401" height="969" transform="translate(1190.4 3012.71) scale(.24)" xlink:href="arma_tu_pino42.png"/>
      <image id="_3pieza21" data-name="3pieza21" width="397" height="981" transform="translate(1135.44 2715.59) scale(.24)" xlink:href="arma_tu_pino43.png"/>
      <image id="_3pieza20" data-name="3pieza20" width="430" height="951" transform="translate(138.48 2703.35) scale(.24)" xlink:href="arma_tu_pino44.png"/>
      <image id="_3pieza19" data-name="3pieza19" width="840" height="955" transform="translate(1582.8 3016.07) scale(.24)" xlink:href="arma_tu_pino45.png"/>
      <image id="_3pieza18" data-name="3pieza18" width="854" height="959" transform="translate(63.84 3015.11) scale(.24)" xlink:href="arma_tu_pino46.png"/>
      <image id="_3pieza17" data-name="3pieza17" width="382" height="807" transform="translate(1400.16 3051.59) scale(.24)" xlink:href="arma_tu_pino47.png"/>
      <image id="_3pieza16" data-name="3pieza16" width="360" height="992" transform="translate(333.36 2693.51) scale(.24)" xlink:href="arma_tu_pino48.png"/>
      <image id="_3pieza15" data-name="3pieza15" width="353" height="986" transform="translate(689.76 2694.95) scale(.24)" xlink:href="arma_tu_pino49.png"/>
      <image id="_3pieza14" data-name="3pieza14" width="981" height="1029" transform="translate(1548.96 2715.59) scale(.24)" xlink:href="arma_tu_pino50.png"/>
      <image id="_3pieza13" data-name="3pieza13" width="835" height="903" transform="translate(1584 2442.47) scale(.24)" xlink:href="arma_tu_pino51.png"/>
      <image id="_3pieza12" data-name="3pieza12" width="666" height="699" transform="translate(949.68 3060.47) scale(.24)" xlink:href="arma_tu_pino52.png"/>
      <image id="_3pieza11" data-name="3pieza11" width="782" height="821" transform="translate(693.36 3048.23) scale(.24)" xlink:href="arma_tu_pino53.png"/>
      <image id="_3pieza10" data-name="3pieza10" width="718" height="922" transform="translate(388.32 2433.11) scale(.24)" xlink:href="arma_tu_pino54.png"/>
      <image id="_3pieza9" data-name="3pieza9" width="625" height="803" transform="translate(1357.44 2466.47) scale(.24)" xlink:href="arma_tu_pino55.png"/>
      <image id="_3pieza8" data-name="3pieza8" width="1053" height="1152" transform="translate(359.76 2968.79) scale(.24)" xlink:href="arma_tu_pino56.png"/>
      <image id="_3pieza7" data-name="3pieza7" width="960" height="1091" transform="translate(1292.16 2700.71) scale(.24)" xlink:href="arma_tu_pino57.png"/>
      <image id="_3pieza6" data-name="3pieza6" width="661" height="738" transform="translate(481.44 2729.03) scale(.24)" xlink:href="arma_tu_pino58.png"/>
      <image id="_3pieza5" data-name="3pieza5" width="790" height="903" transform="translate(889.2 2722.07) scale(.24)" xlink:href="arma_tu_pino59.png"/>
      <image id="_3pieza4" data-name="3pieza4" width="476" height="793" transform="translate(713.04 2457.11) scale(.24)" xlink:href="arma_tu_pino60.png"/>
      <image id="_3pieza3" data-name="3pieza3" width="448" height="654" transform="translate(866.4 2497.43) scale(.24)" xlink:href="arma_tu_pino61.png"/>
      <image id="_3pieza2" data-name="3pieza2" width="388" height="667" transform="translate(1007.76 2499.11) scale(.24)" xlink:href="arma_tu_pino62.png"/>
      <image id="_3pieza1" data-name="3pieza1" width="499" height="525" transform="translate(1135.44 2520.71) scale(.24)" xlink:href="arma_tu_pino63.png"/>
      <image id="estrella3" width="1033" height="1036" transform="translate(63.84 2410.55) scale(.24)" xlink:href="arma_tu_pino64.png"/>
    </g>
  </g>
  <g id="derechaCaja">
    <g id="grupo">
      <circle cx="1160.67" cy="2312.53" r="75.86" style="fill: #65c191; stroke: #449368; stroke-miterlimit: 10; stroke-width: 3.82px;"/>
      <g>
        <line x1="1106.17" y1="2312.53" x2="1169.05" y2="2312.53" style="fill: none; stroke: #fff; stroke-miterlimit: 10; stroke-width: 7.64px;"/>
        <path d="m1215.17,2312.53c-21.7,8.05-48.63,21.79-65.32,36.34l13.15-36.34-13.15-36.34c16.69,14.55,43.62,28.29,65.32,36.34Z" style="fill: #fff;"/>
      </g>
    </g>
  </g>
  <g id="izquierdaCaja">
    <g id="grupo-2" data-name="grupo">
      <circle cx="684.93" cy="2312.53" r="75.86" style="fill: #65c191; stroke: #449368; stroke-miterlimit: 10; stroke-width: 3.82px;"/>
      <g>
        <line x1="739.43" y1="2312.53" x2="676.55" y2="2312.53" style="fill: none; stroke: #fff; stroke-miterlimit: 10; stroke-width: 7.64px;"/>
        <path d="m630.43,2312.53c21.7-8.05,48.63-21.79,65.32-36.34l-13.15,36.34,13.15,36.34c-16.69-14.55-43.62-28.29-65.32-36.34Z" style="fill: #fff;"/>
      </g>
    </g>
  </g>
  <g id="derechaPino">
    <g id="grupo-3" data-name="grupo">
      <circle cx="1666.42" cy="1487.22" r="88.39" style="fill: #65c191; stroke: #449368; stroke-miterlimit: 10; stroke-width: 4.45px;"/>
      <g>
        <line x1="1602.92" y1="1487.22" x2="1676.19" y2="1487.22" style="fill: none; stroke: #fff; stroke-miterlimit: 10; stroke-width: 8.9px;"/>
        <path d="m1729.92,1487.22c-25.29,9.38-56.66,25.39-76.1,42.35l15.32-42.35-15.32-42.34c19.45,16.96,50.82,32.96,76.1,42.34Z" style="fill: #fff;"/>
      </g>
    </g>
  </g>
  <g id="izquierdaPino">
    <g id="grupo-4" data-name="grupo">
      <circle cx="232.42" cy="1487.22" r="88.39" style="fill: #65c191; stroke: #449368; stroke-miterlimit: 10; stroke-width: 4.45px;"/>
      <g>
        <line x1="295.92" y1="1487.22" x2="222.66" y2="1487.22" style="fill: none; stroke: #fff; stroke-miterlimit: 10; stroke-width: 8.9px;"/>
        <path d="m168.92,1487.22c25.29-9.38,56.66-25.39,76.1-42.35l-15.32,42.35,15.32,42.34c-19.45-16.96-50.82-32.96-76.1-42.34Z" style="fill: #fff;"/>
      </g>
    </g>
  </g>
  <g id="botonaviso">
    <g id="grupo-5" data-name="grupo">
      <circle cx="1706.07" cy="2312.53" r="46.72" style="fill: #65c191; stroke: #449368; stroke-miterlimit: 10; stroke-width: 2.35px;"/>
      <path d="m1686.45,2291.79c3.38-5.42,9.69-10.13,18.23-10.13,12,0,18.4,8.27,18.4,17.07,0,7.02-3.11,11.82-12.62,17.96l-5.42,3.47-6.58-10.22,6.05-4.09c2.93-1.96,4.27-3.73,4.27-6.22s-1.96-4.53-4.71-4.53c-3.38,0-5.96,2.13-8.45,5.24l-9.16-8.53Zm9.78,40.72c0-4.89,3.91-8.89,8.8-8.89s8.89,4,8.89,8.89-4,8.8-8.89,8.8-8.8-3.91-8.8-8.8Z" style="fill: #fff;"/>
    </g>
  </g>
  <g id="ventana_aviso">
    <g>
      <g>
        <g>
          <path d="m1651.03,1461.45H194.57c-30.4,0-55.04-24.64-55.04-55.04v-59.25c0-20.59,12.38-39.15,31.38-47.07l64.77-26.97-67.22-32.25c-17.68-8.48-28.93-26.36-28.93-45.97v-78.97c0-11.36,3.79-22.39,10.78-31.35l29.43-37.75-28.67-51.41c-18.13-32.5,3.49-73.79,40.66-75.67.94-.05,1.88-.07,2.83-.07h1456.46c30.4,0,55.04,24.64,55.04,55.04v43.2c0,18.87-10.42,36.19-27.09,45.04l-66.8,35.45,70.71,46.03c14.45,9.41,23.17,25.48,23.17,42.73v29.86l-33.09,82.18,33.09,107.21c0,30.4-24.64,55.04-55.04,55.04Z" style="fill: #ce7424; stroke: #9b4f04; stroke-miterlimit: 10; stroke-width: 7.83px;"/>
          <path d="m179.74,1046.84s179.25-82.33,551.75-24.82c372.49,57.51,974.58-20.4,974.58-20.4" style="fill: none; stroke: #bc6620; stroke-miterlimit: 10; stroke-width: 7.83px;"/>
          <path d="m235.68,1273.12s303.45,36.88,517.15,0c213.7-36.88,920.15,26.08,920.15,26.08" style="fill: none; stroke: #bc6620; stroke-miterlimit: 10; stroke-width: 7.83px;"/>
          <path d="m154.97,1444.62s239.45-146.87,758.47,16.83" style="fill: none; stroke: #bc6620; stroke-miterlimit: 10; stroke-width: 7.83px;"/>
          <path d="m1086.75,919.69s226.77,86.3,472.29,0" style="fill: none; stroke: #bc6620; stroke-miterlimit: 10; stroke-width: 7.83px;"/>
          <path d="m1651.03,1461.45H194.57c-30.4,0-55.04-24.64-55.04-55.04v-59.25c0-20.59,12.38-39.15,31.38-47.07l64.77-26.97-67.22-32.25c-17.68-8.48-28.93-26.36-28.93-45.97v-78.97c0-11.36,3.79-22.39,10.78-31.35l29.43-37.75-28.67-51.41c-18.13-32.5,3.49-73.79,40.66-75.67.94-.05,1.88-.07,2.83-.07h1456.46c30.4,0,55.04,24.64,55.04,55.04v43.2c0,18.87-10.42,36.19-27.09,45.04l-66.8,35.45,70.71,46.03c14.45,9.41,23.17,25.48,23.17,42.73v29.86l-33.09,82.18,33.09,107.21c0,30.4-24.64,55.04-55.04,55.04Z" style="fill: none; stroke: #9b4f04; stroke-miterlimit: 10; stroke-width: 7.83px;"/>
        </g>
        <g>
          <path d="m385.77,1044.05h22.49c15.74,0,26.16,8.11,26.16,20.47,0,8.01-4.25,14.29-11.49,17.76l13.03,23.65h-18.44l-10.62-20.66h-5.21v20.66h-15.93v-61.88Zm15.93,14v13.23h7.82c4.83,0,8.01-2.7,8.01-6.76s-3.19-6.47-8.01-6.47h-7.82Z" style="fill: #fff;"/>
          <path d="m438.58,1082.86c0-13.61,10.33-24.62,23.84-24.62s23.94,10.04,23.94,23.65c0,1.93-.1,3.86-.29,4.83h-31.37c1.25,4.25,4.83,7.05,9.94,7.05,4.15,0,7.24-1.93,9.56-4.34l7.92,10.52c-3.28,3.96-9.85,7.43-18.05,7.43-14.67,0-25.49-11-25.49-24.52Zm16.41-5.6h15.45c-1.25-4.15-4.15-5.99-7.72-5.99-3.77,0-6.47,2.32-7.72,5.99Z" style="fill: #fff;"/>
          <path d="m516.67,1072.82c-5.99,0-9.85,4.34-9.85,10.04s3.96,9.94,9.85,9.94c4.25,0,7.34-1.54,10.14-4.25l7.72,11.39c-3.57,4.25-10.62,7.43-18.25,7.43-14,0-25-11-25-24.52s11.1-24.62,24.62-24.62c8.4,0,14.77,2.9,19.11,7.43l-8.78,11.01c-2.7-2.61-5.5-3.86-9.56-3.86Z" style="fill: #fff;"/>
          <path d="m556.35,1084.02c0,5.31,2.9,8.78,7.34,8.78s7.24-3.48,7.24-8.78v-24.33h15.54v25.49c0,13.32-9.07,22.2-22.78,22.2s-22.88-8.88-22.88-22.2v-25.49h15.54v24.33Z" style="fill: #fff;"/>
          <path d="m593.9,1082.86c0-13.61,10.33-24.62,23.84-24.62s23.94,10.04,23.94,23.65c0,1.93-.1,3.86-.29,4.83h-31.37c1.25,4.25,4.83,7.05,9.94,7.05,4.15,0,7.24-1.93,9.56-4.34l7.92,10.52c-3.28,3.96-9.85,7.43-18.05,7.43-14.67,0-25.49-11-25.49-24.52Zm16.41-5.6h15.45c-1.25-4.15-4.15-5.99-7.72-5.99-3.77,0-6.47,2.32-7.72,5.99Z" style="fill: #fff;"/>
          <path d="m664.85,1105.93h-15.54v-46.24h15.54v7.14c2.22-5.02,5.99-8.59,11.01-8.59,3.28,0,5.79.87,7.72,2.61l-6.37,14.67c-1.54-1.35-3.96-2.22-6.27-2.22-3.67,0-6.08,2.99-6.08,7.63v25Z" style="fill: #fff;"/>
          <path d="m733,1039.51v66.42h-15.54v-4.34c-2.8,3.57-6.66,5.79-11.78,5.79-11.78,0-21.91-9.65-21.91-24.52s9.27-24.62,21.91-24.62c5.12,0,9.07,1.93,11.78,5.31v-24.04h15.54Zm-15.54,43.34c0-5.7-3.86-10.04-9.07-10.04s-9.07,4.34-9.07,10.04,3.86,9.94,9.07,9.94,9.07-4.34,9.07-9.94Z" style="fill: #fff;"/>
          <path d="m774.61,1101.59c-2.8,3.57-6.66,5.79-11.78,5.79-11.78,0-21.91-9.65-21.91-24.52s9.27-24.62,21.91-24.62c5.12,0,9.07,1.93,11.78,5.31v-3.86h15.54v46.24h-15.54v-4.34Zm0-18.73c0-5.7-3.86-10.04-9.07-10.04s-9.07,4.34-9.07,10.04,3.86,9.94,9.07,9.94,9.07-4.34,9.07-9.94Z" style="fill: #fff;"/>
          <path d="m815.73,1059.69h8.78v-12.55h15.54v12.55h11.78v13.61h-11.58v14.19c0,3.67,1.26,5.31,3.96,5.31,1.93,0,3.86-.97,4.83-2.22l6.76,11.49c-2.99,2.99-7.92,5.31-14.29,5.31-10.23,0-17.09-6.56-17.09-19.5v-14.58h-8.69v-13.61Z" style="fill: #fff;"/>
          <path d="m857.44,1082.86c0-13.61,11.1-24.62,24.62-24.62s24.62,11,24.62,24.62-11.1,24.52-24.62,24.52-24.62-11-24.62-24.52Zm33.69,0c0-5.7-3.86-10.04-9.07-10.04s-9.07,4.34-9.07,10.04,3.86,9.94,9.07,9.94,9.07-4.34,9.07-9.94Z" style="fill: #fff;"/>
          <path d="m930.13,1105.93h-15.54v-46.24h15.54v6.47c2.32-4.83,6.56-7.92,12.36-7.92,6.56,0,11.68,3.19,14.38,8.78,2.61-4.73,6.47-8.78,13.8-8.78,10.72,0,17.76,7.14,17.76,20.08v27.61h-15.54v-25.49c0-4.63-2.7-7.63-6.76-7.63s-6.85,2.99-6.85,7.63v25.49h-15.54v-25.49c0-4.63-2.7-7.63-6.76-7.63s-6.85,2.99-6.85,7.63v25.49Z" style="fill: #fff;"/>
          <path d="m1030.04,1101.59c-2.8,3.57-6.66,5.79-11.78,5.79-11.78,0-21.91-9.65-21.91-24.52s9.27-24.62,21.91-24.62c5.12,0,9.07,1.93,11.78,5.31v-3.86h15.54v46.24h-15.54v-4.34Zm0-18.73c0-5.7-3.86-10.04-9.07-10.04s-9.08,4.34-9.08,10.04,3.86,9.94,9.08,9.94,9.07-4.34,9.07-9.94Z" style="fill: #fff;"/>
          <path d="m1071.74,1105.93h-15.54v-46.24h15.54v7.14c2.22-5.02,5.99-8.59,11-8.59,3.28,0,5.79.87,7.72,2.61l-6.37,14.67c-1.54-1.35-3.96-2.22-6.27-2.22-3.67,0-6.08,2.99-6.08,7.63v25Z" style="fill: #fff;"/>
          <path d="m1139.22,1072.82c-5.99,0-9.85,4.34-9.85,10.04s3.96,9.94,9.85,9.94c4.25,0,7.34-1.54,10.14-4.25l7.72,11.39c-3.57,4.25-10.62,7.43-18.25,7.43-14,0-25-11-25-24.52s11.1-24.62,24.62-24.62c8.4,0,14.77,2.9,19.11,7.43l-8.78,11.01c-2.7-2.61-5.5-3.86-9.56-3.86Z" style="fill: #fff;"/>
          <path d="m1192.89,1101.59c-2.8,3.57-6.66,5.79-11.78,5.79-11.78,0-21.91-9.65-21.91-24.52s9.27-24.62,21.91-24.62c5.12,0,9.07,1.93,11.78,5.31v-3.86h15.54v46.24h-15.54v-4.34Zm0-18.73c0-5.7-3.86-10.04-9.07-10.04s-9.08,4.34-9.08,10.04,3.86,9.94,9.08,9.94,9.07-4.34,9.07-9.94Z" style="fill: #fff;"/>
          <path d="m1234.6,1059.69v4.34c2.8-3.57,6.66-5.79,11.78-5.79,11.78,0,21.91,9.65,21.91,24.52s-9.27,24.62-21.91,24.62c-5.12,0-9.07-1.93-11.78-5.31v22.78h-15.54v-65.16h15.54Zm0,23.07c0,5.7,3.86,10.04,9.07,10.04s9.07-4.34,9.07-10.04-3.86-9.94-9.07-9.94-9.07,4.34-9.07,9.94Z" style="fill: #fff;"/>
          <path d="m1271.86,1059.69h8.79v-12.55h15.54v12.55h11.78v13.61h-11.58v14.19c0,3.67,1.26,5.31,3.96,5.31,1.93,0,3.86-.97,4.83-2.22l6.76,11.49c-2.99,2.99-7.92,5.31-14.29,5.31-10.23,0-17.09-6.56-17.09-19.5v-14.58h-8.69v-13.61Z" style="fill: #fff;"/>
          <path d="m1333.25,1084.02c0,5.31,2.9,8.78,7.34,8.78s7.24-3.48,7.24-8.78v-24.33h15.54v25.49c0,13.32-9.07,22.2-22.78,22.2s-22.88-8.88-22.88-22.2v-25.49h15.54v24.33Z" style="fill: #fff;"/>
          <path d="m1389.05,1105.93h-15.54v-46.24h15.54v7.14c2.22-5.02,5.99-8.59,11-8.59,3.28,0,5.79.87,7.72,2.61l-6.37,14.67c-1.54-1.35-3.96-2.22-6.27-2.22-3.67,0-6.08,2.99-6.08,7.63v25Z" style="fill: #fff;"/>
          <path d="m1441.66,1101.59c-2.8,3.57-6.66,5.79-11.78,5.79-11.78,0-21.91-9.65-21.91-24.52s9.27-24.62,21.91-24.62c5.12,0,9.07,1.93,11.78,5.31v-3.86h15.54v46.24h-15.54v-4.34Zm0-18.73c0-5.7-3.86-10.04-9.07-10.04s-9.08,4.34-9.08,10.04,3.86,9.94,9.08,9.94,9.07-4.34,9.07-9.94Z" style="fill: #fff;"/>
          <path d="m460.44,1155.35v66.42h-15.54v-4.34c-2.8,3.57-6.66,5.79-11.78,5.79-11.78,0-21.91-9.65-21.91-24.52s9.27-24.62,21.91-24.62c5.12,0,9.07,1.93,11.78,5.31v-24.04h15.54Zm-15.54,43.34c0-5.7-3.86-10.04-9.07-10.04s-9.07,4.34-9.07,10.04,3.86,9.94,9.07,9.94,9.07-4.34,9.07-9.94Z" style="fill: #fff;"/>
          <path d="m468.36,1198.7c0-13.61,10.33-24.62,23.84-24.62s23.94,10.04,23.94,23.65c0,1.93-.1,3.86-.29,4.83h-31.37c1.25,4.25,4.83,7.05,9.94,7.05,4.15,0,7.24-1.93,9.56-4.34l7.92,10.52c-3.28,3.96-9.85,7.43-18.05,7.43-14.67,0-25.49-11-25.49-24.52Zm16.41-5.6h15.45c-1.26-4.15-4.15-5.99-7.72-5.99-3.77,0-6.47,2.32-7.72,5.99Z" style="fill: #fff;"/>
          <path d="m558.62,1175.53v4.34c2.8-3.57,6.66-5.79,11.78-5.79,11.78,0,21.91,9.65,21.91,24.52s-9.27,24.62-21.91,24.62c-5.12,0-9.07-1.93-11.78-5.31v22.78h-15.54v-65.16h15.54Zm0,23.07c0,5.7,3.86,10.04,9.07,10.04s9.07-4.34,9.07-10.04-3.86-9.94-9.07-9.94-9.07,4.34-9.07,9.94Z" style="fill: #fff;"/>
          <path d="m631.21,1217.43c-2.8,3.57-6.66,5.79-11.78,5.79-11.78,0-21.91-9.65-21.91-24.52s9.27-24.62,21.91-24.62c5.12,0,9.07,1.93,11.78,5.31v-3.86h15.54v46.24h-15.54v-4.34Zm0-18.73c0-5.7-3.86-10.04-9.07-10.04s-9.07,4.34-9.07,10.04,3.86,9.94,9.07,9.94,9.07-4.34,9.07-9.94Z" style="fill: #fff;"/>
          <path d="m672.91,1221.77h-15.54v-46.24h15.54v5.7c2.32-4.54,6.47-7.14,11.97-7.14,10.52,0,17.18,7.53,17.18,20.08v27.61h-15.54v-25.49c0-4.63-2.7-7.63-6.76-7.63s-6.85,2.99-6.85,7.63v25.49Z" style="fill: #fff;"/>
          <path d="m708.34,1175.53h8.78v-12.55h15.54v12.55h11.78v13.61h-11.58v14.19c0,3.67,1.26,5.31,3.96,5.31,1.93,0,3.86-.97,4.83-2.22l6.76,11.49c-2.99,2.99-7.92,5.31-14.29,5.31-10.23,0-17.09-6.56-17.09-19.5v-14.58h-8.69v-13.61Z" style="fill: #fff;"/>
          <path d="m783.74,1217.43c-2.8,3.57-6.66,5.79-11.78,5.79-11.78,0-21.91-9.65-21.91-24.52s9.27-24.62,21.91-24.62c5.12,0,9.07,1.93,11.78,5.31v-3.86h15.54v46.24h-15.54v-4.34Zm0-18.73c0-5.7-3.86-10.04-9.07-10.04s-9.07,4.34-9.07,10.04,3.86,9.94,9.07,9.94,9.07-4.34,9.07-9.94Z" style="fill: #fff;"/>
          <path d="m809.9,1155.35h15.54v66.42h-15.54v-66.42Z" style="fill: #fff;"/>
          <path d="m836.06,1155.35h15.54v66.42h-15.54v-66.42Z" style="fill: #fff;"/>
          <path d="m893.2,1217.43c-2.8,3.57-6.66,5.79-11.78,5.79-11.78,0-21.91-9.65-21.91-24.52s9.27-24.62,21.91-24.62c5.12,0,9.07,1.93,11.78,5.31v-3.86h15.54v46.24h-15.54v-4.34Zm0-18.73c0-5.7-3.86-10.04-9.07-10.04s-9.07,4.34-9.07,10.04,3.86,9.94,9.07,9.94,9.07-4.34,9.07-9.94Z" style="fill: #fff;"/>
          <path d="m969.66,1217.43c-2.8,3.57-6.66,5.79-11.78,5.79-11.78,0-21.91-9.65-21.91-24.52s9.27-24.62,21.91-24.62c5.12,0,9.07,1.93,11.78,5.31v-3.86h15.54v46.24h-15.54v-4.34Zm0-18.73c0-5.7-3.86-10.04-9.07-10.04s-9.08,4.34-9.08,10.04,3.86,9.94,9.08,9.94,9.07-4.34,9.07-9.94Z" style="fill: #fff;"/>
          <path d="m995.82,1155.35h15.54v66.42h-15.54v-66.42Z" style="fill: #fff;"/>
          <path d="m1036.94,1175.53h8.79v-12.55h15.54v12.55h11.78v13.61h-11.58v14.19c0,3.67,1.26,5.31,3.96,5.31,1.93,0,3.86-.97,4.83-2.22l6.76,11.49c-2.99,2.99-7.92,5.31-14.29,5.31-10.23,0-17.09-6.56-17.09-19.5v-14.58h-8.69v-13.61Z" style="fill: #fff;"/>
          <path d="m1078.65,1198.7c0-13.61,10.33-24.62,23.84-24.62s23.94,10.04,23.94,23.65c0,1.93-.1,3.86-.29,4.83h-31.37c1.26,4.25,4.83,7.05,9.94,7.05,4.15,0,7.24-1.93,9.56-4.34l7.92,10.52c-3.28,3.96-9.85,7.43-18.05,7.43-14.67,0-25.49-11-25.49-24.52Zm16.41-5.6h15.45c-1.26-4.15-4.15-5.99-7.72-5.99-3.76,0-6.47,2.32-7.72,5.99Z" style="fill: #fff;"/>
          <path d="m1149.6,1221.77h-15.54v-46.24h15.54v7.14c2.22-5.02,5.99-8.59,11-8.59,3.28,0,5.79.87,7.72,2.61l-6.37,14.67c-1.54-1.35-3.96-2.22-6.27-2.22-3.67,0-6.08,2.99-6.08,7.63v25Z" style="fill: #fff;"/>
          <path d="m1190.62,1221.77h-15.54v-46.24h15.54v6.47c2.32-4.83,6.56-7.92,12.36-7.92,6.56,0,11.68,3.19,14.38,8.78,2.61-4.73,6.47-8.78,13.8-8.78,10.72,0,17.76,7.14,17.76,20.08v27.61h-15.54v-25.49c0-4.63-2.7-7.63-6.76-7.63s-6.85,2.99-6.85,7.63v25.49h-15.54v-25.49c0-4.63-2.7-7.63-6.76-7.63s-6.85,2.99-6.85,7.63v25.49Z" style="fill: #fff;"/>
          <path d="m1258.58,1162.69c0-4.83,3.86-8.78,8.69-8.78s8.79,3.96,8.79,8.78-3.96,8.69-8.79,8.69-8.69-3.86-8.69-8.69Zm16.51,59.08h-15.54v-46.24h15.54v46.24Z" style="fill: #fff;"/>
          <path d="m1301.25,1221.77h-15.54v-46.24h15.54v5.7c2.32-4.54,6.47-7.14,11.97-7.14,10.52,0,17.18,7.53,17.18,20.08v27.61h-15.54v-25.49c0-4.63-2.7-7.63-6.76-7.63s-6.85,2.99-6.85,7.63v25.49Z" style="fill: #fff;"/>
          <path d="m1372.01,1217.43c-2.8,3.57-6.66,5.79-11.78,5.79-11.78,0-21.91-9.65-21.91-24.52s9.27-24.62,21.91-24.62c5.12,0,9.07,1.93,11.78,5.31v-3.86h15.54v46.24h-15.54v-4.34Zm0-18.73c0-5.7-3.86-10.04-9.07-10.04s-9.08,4.34-9.08,10.04,3.86,9.94,9.08,9.94,9.07-4.34,9.07-9.94Z" style="fill: #fff;"/>
          <path d="m1413.72,1221.77h-15.54v-46.24h15.54v7.14c2.22-5.02,5.99-8.59,11-8.59,3.28,0,5.79.87,7.72,2.61l-6.37,14.67c-1.54-1.35-3.96-2.22-6.27-2.22-3.67,0-6.08,2.99-6.08,7.63v25Z" style="fill: #fff;"/>
          <path d="m559.01,1271.2v66.42h-15.54v-4.34c-2.8,3.57-6.66,5.79-11.78,5.79-11.78,0-21.91-9.65-21.91-24.52s9.27-24.62,21.91-24.62c5.12,0,9.07,1.93,11.78,5.31v-24.04h15.54Zm-15.54,43.34c0-5.7-3.86-10.04-9.07-10.04s-9.07,4.34-9.07,10.04,3.86,9.94,9.07,9.94,9.07-4.34,9.07-9.94Z" style="fill: #fff;"/>
          <path d="m566.92,1314.54c0-13.61,10.33-24.62,23.84-24.62s23.94,10.04,23.94,23.65c0,1.93-.1,3.86-.29,4.83h-31.37c1.25,4.25,4.83,7.05,9.94,7.05,4.15,0,7.24-1.93,9.56-4.34l7.92,10.52c-3.28,3.96-9.85,7.43-18.05,7.43-14.67,0-25.49-11-25.49-24.52Zm16.41-5.6h15.45c-1.26-4.15-4.15-5.99-7.72-5.99-3.77,0-6.47,2.32-7.72,5.99Z" style="fill: #fff;"/>
          <path d="m688.17,1271.2v66.42h-15.54v-4.34c-2.8,3.57-6.66,5.79-11.78,5.79-11.78,0-21.91-9.65-21.91-24.52s9.27-24.62,21.91-24.62c5.12,0,9.07,1.93,11.78,5.31v-24.04h15.54Zm-15.54,43.34c0-5.7-3.86-10.04-9.07-10.04s-9.07,4.34-9.07,10.04,3.86,9.94,9.07,9.94,9.07-4.34,9.07-9.94Z" style="fill: #fff;"/>
          <path d="m696.08,1314.54c0-13.61,10.33-24.62,23.84-24.62s23.94,10.04,23.94,23.65c0,1.93-.1,3.86-.29,4.83h-31.37c1.25,4.25,4.83,7.05,9.94,7.05,4.15,0,7.24-1.93,9.56-4.34l7.92,10.52c-3.28,3.96-9.85,7.43-18.05,7.43-14.67,0-25.49-11-25.49-24.52Zm16.41-5.6h15.45c-1.25-4.15-4.15-5.99-7.72-5.99-3.77,0-6.47,2.32-7.72,5.99Z" style="fill: #fff;"/>
          <path d="m774.18,1304.5c-5.99,0-9.85,4.34-9.85,10.04s3.96,9.94,9.85,9.94c4.25,0,7.34-1.54,10.14-4.25l7.72,11.39c-3.57,4.25-10.62,7.43-18.25,7.43-14,0-25-11-25-24.52s11.1-24.62,24.62-24.62c8.4,0,14.77,2.9,19.11,7.43l-8.78,11.01c-2.7-2.61-5.5-3.86-9.56-3.86Z" style="fill: #fff;"/>
          <path d="m794.16,1314.54c0-13.61,11.1-24.62,24.62-24.62s24.62,11,24.62,24.62-11.1,24.52-24.62,24.52-24.62-11-24.62-24.52Zm33.69,0c0-5.7-3.86-10.04-9.07-10.04s-9.07,4.34-9.07,10.04,3.86,9.94,9.07,9.94,9.07-4.34,9.07-9.94Z" style="fill: #fff;"/>
          <path d="m866.85,1337.61h-15.54v-46.24h15.54v7.14c2.22-5.02,5.99-8.59,11-8.59,3.28,0,5.79.87,7.72,2.61l-6.37,14.67c-1.54-1.35-3.96-2.22-6.27-2.22-3.67,0-6.08,2.99-6.08,7.63v25Z" style="fill: #fff;"/>
          <path d="m919.46,1333.27c-2.8,3.57-6.66,5.79-11.78,5.79-11.78,0-21.91-9.65-21.91-24.52s9.27-24.62,21.91-24.62c5.12,0,9.07,1.93,11.78,5.31v-3.86h15.54v46.24h-15.54v-4.34Zm0-18.73c0-5.7-3.86-10.04-9.07-10.04s-9.07,4.34-9.07,10.04,3.86,9.94,9.07,9.94,9.07-4.34,9.07-9.94Z" style="fill: #fff;"/>
          <path d="m961.16,1337.61h-15.54v-46.24h15.54v7.14c2.22-5.02,5.99-8.59,11-8.59,3.28,0,5.79.87,7.72,2.61l-6.37,14.67c-1.54-1.35-3.96-2.22-6.27-2.22-3.67,0-6.08,2.99-6.08,7.63v25Z" style="fill: #fff;"/>
          <path d="m1001.61,1291.37h8.79v-12.55h15.54v12.55h11.78v13.61h-11.58v14.19c0,3.67,1.26,5.31,3.96,5.31,1.93,0,3.86-.97,4.83-2.22l6.76,11.49c-2.99,2.99-7.92,5.31-14.29,5.31-10.23,0-17.09-6.56-17.09-19.5v-14.58h-8.69v-13.61Z" style="fill: #fff;"/>
          <path d="m1063.01,1315.7c0,5.31,2.9,8.78,7.34,8.78s7.24-3.48,7.24-8.78v-24.33h15.54v25.49c0,13.32-9.07,22.2-22.78,22.2s-22.88-8.88-22.88-22.2v-25.49h15.54v24.33Z" style="fill: #fff;"/>
          <path d="m1138.11,1291.37v4.34c2.8-3.57,6.66-5.79,11.78-5.79,11.78,0,21.91,9.65,21.91,24.52s-9.27,24.62-21.91,24.62c-5.12,0-9.07-1.93-11.78-5.31v22.78h-15.54v-65.16h15.54Zm0,23.07c0,5.7,3.86,10.04,9.07,10.04s9.07-4.34,9.07-10.04-3.86-9.94-9.07-9.94-9.07,4.34-9.07,9.94Z" style="fill: #fff;"/>
          <path d="m1178.75,1278.53c0-4.83,3.86-8.78,8.69-8.78s8.79,3.96,8.79,8.78-3.96,8.69-8.79,8.69-8.69-3.86-8.69-8.69Zm16.51,59.08h-15.54v-46.24h15.54v46.24Z" style="fill: #fff;"/>
          <path d="m1221.42,1337.61h-15.54v-46.24h15.54v5.7c2.32-4.54,6.47-7.14,11.97-7.14,10.52,0,17.18,7.53,17.18,20.08v27.61h-15.54v-25.49c0-4.63-2.7-7.63-6.76-7.63s-6.85,2.99-6.85,7.63v25.49Z" style="fill: #fff;"/>
          <path d="m1258.49,1314.54c0-13.61,11.1-24.62,24.62-24.62s24.62,11,24.62,24.62-11.1,24.52-24.62,24.52-24.62-11-24.62-24.52Zm33.69,0c0-5.7-3.86-10.04-9.07-10.04s-9.08,4.34-9.08,10.04,3.86,9.94,9.08,9.94,9.07-4.34,9.07-9.94Z" style="fill: #fff;"/>
          <path d="m1312.74,1329.5c0-5.31,4.25-9.65,9.56-9.65s9.65,4.34,9.65,9.65-4.34,9.56-9.65,9.56-9.56-4.25-9.56-9.56Z" style="fill: #fff;"/>
        </g>
      </g>
      <g id="x">
        <path d="m1617.72,954.74c5.44,5.44,10.88,10.88,16.33,16.33,8.67,8.67,17.34,17.34,26.02,26.02,1.99,1.99,3.97,3.97,5.96,5.96s5.36,2.03,7.23,0,2.02-5.21,0-7.23c-5.44-5.44-10.88-10.88-16.33-16.33-8.67-8.67-17.34-17.34-26.02-26.02-1.99-1.99-3.97-3.97-5.96-5.96-1.89-1.89-5.36-2.03-7.23,0s-2.02,5.21,0,7.23h0Z" style="fill: #fff;"/>
        <path d="m1666.03,947.51c-5.44,5.44-10.88,10.88-16.33,16.33-8.67,8.67-17.34,17.34-26.02,26.02-1.99,1.99-3.97,3.97-5.96,5.96-1.89,1.89-2.03,5.36,0,7.23s5.21,2.02,7.23,0c5.44-5.44,10.88-10.88,16.33-16.33,8.67-8.67,17.34-17.34,26.02-26.02,1.99-1.99,3.97-3.97,5.96-5.96,1.89-1.89,2.03-5.36,0-7.23-2.04-1.87-5.21-2.02-7.23,0h0Z" style="fill: #fff;"/>
      </g>
    </g>
  </g>
</svg>