<?xml version="1.0" encoding="UTF-8"?>
<svg xmlns="http://www.w3.org/2000/svg" xmlns:xlink="http://www.w3.org/1999/xlink" viewBox="0 0 1845.6 3180">
  <g id="fondo">
    <image id="Fondo_Imagen" data-name="Fondo Imagen" width="7690" height="9159" transform="scale(.24)" xlink:href="arma_tu_pino1.png"/>
  </g>
  <g id="capa">
    <rect x="0" y="2188.8" width="1845.6" height="991.2" style="fill: #00253f;"/>
  </g>
  <g id="pino1">
    <image id="pino1_Imagen" data-name="pino1 Imagen" width="5634" height="7616" transform="translate(322.08 230.88) scale(.24)" xlink:href="arma_tu_pino2.png"/>
  </g>
  <g id="pino2">
    <image id="pino2_Imagen" data-name="pino2 Imagen" width="5664" height="7616" transform="translate(322.08 230.88) scale(.24)" xlink:href="arma_tu_pino3.png"/>
  </g>
  <g id="pino3">
    <image id="Imagen_42_Imagen" data-name="Imagen 42 Imagen" width="5634" height="7616" transform="translate(322.08 230.88) scale(.24)" xlink:href="arma_tu_pino4.png"/>
  </g>
  <g id="decoraciones_1">
    <g>
      <image id="_1pieza20" data-name="1pieza20" width="396" height="521" transform="translate(501.84 2526.72) scale(.24)" xlink:href="arma_tu_pino5.png"/>
      <image id="_1pieza19" data-name="1pieza19" width="433" height="537" transform="translate(1115.52 2283.6) scale(.24)" xlink:href="arma_tu_pino6.png"/>
      <image id="_1pieza18" data-name="1pieza18" width="349" height="433" transform="translate(769.92 2740.08) scale(.24)" xlink:href="arma_tu_pino7.png"/>
      <image id="_1pieza17" data-name="1pieza17" width="449" height="591" transform="translate(680.64 2277.12) scale(.24)" xlink:href="arma_tu_pino8.png"/>
      <image id="_1pieza16" data-name="1pieza16" width="382" height="503" transform="translate(692.88 2533.44) scale(.24)" xlink:href="arma_tu_pino9.png"/>
      <image id="_1pieza15" data-name="1pieza15" width="449" height="591" transform="translate(1015.2 2686.56) scale(.24)" xlink:href="arma_tu_pino10.png"/>
      <image id="_1pieza14" data-name="1pieza14" width="345" height="453" transform="translate(890.64 2539.44) scale(.24)" xlink:href="arma_tu_pino11.png"/>
      <image id="_1pieza13" data-name="1pieza13" width="593" height="736" transform="translate(880.8 2264.4) scale(.24)" xlink:href="arma_tu_pino12.png"/>
      <image id="_1pieza12" data-name="1pieza12" width="444" height="552" transform="translate(503.04 2264.4) scale(.24)" xlink:href="arma_tu_pino13.png"/>
      <image id="_1pieza11" data-name="1pieza11" width="349" height="433" transform="translate(546.72 2740.08) scale(.24)" xlink:href="arma_tu_pino14.png"/>
      <image id="_1pieza10" data-name="1pieza10" width="593" height="736" transform="translate(242.88 2651.76) scale(.24)" xlink:href="arma_tu_pino15.png"/>
      <image id="_1pieza9" data-name="1pieza9" width="554" height="643" transform="translate(242.88 2933.52) scale(.24)" xlink:href="arma_tu_pino16.png"/>
      <image id="_1pieza8" data-name="1pieza8" width="521" height="571" transform="translate(535.44 2911.2) scale(.24)" xlink:href="arma_tu_pino17.png"/>
      <image id="_1pieza7" data-name="1pieza7" width="645" height="689" transform="translate(836.64 2933.52) scale(.24)" xlink:href="arma_tu_pino18.png"/>
      <image id="_1pieza6" data-name="1pieza6" width="638" height="735" transform="translate(1167.6 2891.52) scale(.24)" xlink:href="arma_tu_pino19.png"/>
      <image id="_1pieza5" data-name="1pieza5" width="637" height="736" transform="translate(1541.04 2911.2) scale(.24)" xlink:href="arma_tu_pino20.png"/>
      <image id="_1pieza4" data-name="1pieza4" width="497" height="824" transform="translate(1574.64 2490.48) scale(.24)" xlink:href="arma_tu_pino21.png"/>
      <image id="_1pieza3" data-name="1pieza3" width="663" height="677" transform="translate(1341.12 2648.16) scale(.24)" xlink:href="arma_tu_pino22.png"/>
      <image id="_1pieza2" data-name="1pieza2" width="461" height="765" transform="translate(1420.56 2298.72) scale(.24)" xlink:href="arma_tu_pino23.png"/>
      <image id="_1pieza1" data-name="1pieza1" width="475" height="787" transform="translate(1152.72 2465.28) scale(.24)" xlink:href="arma_tu_pino24.png"/>
      <image id="estrella1" width="1459" height="1546" transform="translate(151.68 2250.96) scale(.24)" xlink:href="arma_tu_pino25.png"/>
    </g>
  </g>
  <g id="decoraciones_2">
    <g>
      <image id="_2pieza16" data-name="2pieza16" width="998" height="1116" transform="translate(1197.36 2832.72) scale(.24)" xlink:href="arma_tu_pino26.png"/>
      <image id="_2pieza15" data-name="2pieza15" width="998" height="1116" transform="translate(803.04 2832.72) scale(.24)" xlink:href="arma_tu_pino27.png"/>
      <image id="_2pieza14" data-name="2pieza14" width="1016" height="1064" transform="translate(1536.72 2845.2) scale(.24)" xlink:href="arma_tu_pino28.png"/>
      <image id="_2pieza13" data-name="2pieza13" width="1195" height="916" transform="translate(63.36 2880.72) scale(.24)" xlink:href="arma_tu_pino29.png"/>
      <image id="_2pieza12" data-name="2pieza12" width="891" height="997" transform="translate(1566.72 2540.88) scale(.24)" xlink:href="arma_tu_pino30.png"/>
      <image id="_2pieza11" data-name="2pieza11" width="1016" height="1064" transform="translate(459.36 2845.2) scale(.24)" xlink:href="arma_tu_pino31.png"/>
      <image id="_2pieza10" data-name="2pieza10" width="423" height="700" transform="translate(432.96 2305.44) scale(.24)" xlink:href="arma_tu_pino32.png"/>
      <image id="_2pieza9" data-name="2pieza9" width="423" height="700" transform="translate(105.36 2612.16) scale(.24)" xlink:href="arma_tu_pino33.png"/>
      <image id="_2pieza8" data-name="2pieza8" width="533" height="838" transform="translate(286.32 2462.16) scale(.24)" xlink:href="arma_tu_pino34.png"/>
      <image id="_2pieza7" data-name="2pieza7" width="568" height="733" transform="translate(1317.12 2254.56) scale(.24)" xlink:href="arma_tu_pino35.png"/>
      <image id="_2pieza6" data-name="2pieza6" width="558" height="785" transform="translate(1614.48 2254.56) scale(.24)" xlink:href="arma_tu_pino36.png"/>
      <image id="_2pieza5" data-name="2pieza5" width="840" height="975" transform="translate(995.76 2254.56) scale(.24)" xlink:href="arma_tu_pino37.png"/>
      <image id="_2pieza4" data-name="2pieza4" width="943" height="1091" transform="translate(1227.12 2491.2) scale(.24)" xlink:href="arma_tu_pino38.png"/>
      <image id="_2pieza3" data-name="2pieza3" width="647" height="748" transform="translate(483.6 2573.52) scale(.24)" xlink:href="arma_tu_pino39.png"/>
      <image id="_2pieza2" data-name="2pieza2" width="838" height="970" transform="translate(822.24 2520.24) scale(.24)" xlink:href="arma_tu_pino40.png"/>
      <image id="_2pieza1" data-name="2pieza1" width="687" height="793" transform="translate(638.88 2254.56) scale(.24)" xlink:href="arma_tu_pino41.png"/>
      <image id="estrella2" width="1072" height="1215" transform="translate(65.04 2254.56) scale(.24)" xlink:href="arma_tu_pino42.png"/>
    </g>
  </g>
  <g id="decoraciones_3">
    <g>
      <image id="_3pieza22" data-name="3pieza22" width="401" height="969" transform="translate(1190.4 2862) scale(.24)" xlink:href="arma_tu_pino43.png"/>
      <image id="_3pieza21" data-name="3pieza21" width="397" height="981" transform="translate(1135.44 2564.88) scale(.24)" xlink:href="arma_tu_pino44.png"/>
      <image id="_3pieza20" data-name="3pieza20" width="430" height="951" transform="translate(138.48 2552.64) scale(.24)" xlink:href="arma_tu_pino45.png"/>
      <image id="_3pieza19" data-name="3pieza19" width="840" height="955" transform="translate(1582.8 2865.36) scale(.24)" xlink:href="arma_tu_pino46.png"/>
      <image id="_3pieza18" data-name="3pieza18" width="854" height="959" transform="translate(63.84 2864.4) scale(.24)" xlink:href="arma_tu_pino47.png"/>
      <image id="_3pieza17" data-name="3pieza17" width="382" height="807" transform="translate(1400.16 2900.88) scale(.24)" xlink:href="arma_tu_pino48.png"/>
      <image id="_3pieza16" data-name="3pieza16" width="360" height="992" transform="translate(333.36 2542.8) scale(.24)" xlink:href="arma_tu_pino49.png"/>
      <image id="_3pieza15" data-name="3pieza15" width="353" height="986" transform="translate(689.76 2544.24) scale(.24)" xlink:href="arma_tu_pino50.png"/>
      <image id="_3pieza14" data-name="3pieza14" width="981" height="1029" transform="translate(1548.96 2564.88) scale(.24)" xlink:href="arma_tu_pino51.png"/>
      <image id="_3pieza13" data-name="3pieza13" width="835" height="903" transform="translate(1584 2291.76) scale(.24)" xlink:href="arma_tu_pino52.png"/>
      <image id="_3pieza12" data-name="3pieza12" width="666" height="699" transform="translate(949.68 2909.76) scale(.24)" xlink:href="arma_tu_pino53.png"/>
      <image id="_3pieza11" data-name="3pieza11" width="782" height="821" transform="translate(693.36 2897.52) scale(.24)" xlink:href="arma_tu_pino54.png"/>
      <image id="_3pieza10" data-name="3pieza10" width="718" height="922" transform="translate(388.32 2282.4) scale(.24)" xlink:href="arma_tu_pino55.png"/>
      <image id="_3pieza9" data-name="3pieza9" width="625" height="803" transform="translate(1357.44 2315.76) scale(.24)" xlink:href="arma_tu_pino56.png"/>
      <image id="_3pieza8" data-name="3pieza8" width="1053" height="1152" transform="translate(359.76 2818.08) scale(.24)" xlink:href="arma_tu_pino57.png"/>
      <image id="_3pieza7" data-name="3pieza7" width="960" height="1091" transform="translate(1292.16 2550) scale(.24)" xlink:href="arma_tu_pino58.png"/>
      <image id="_3pieza6" data-name="3pieza6" width="661" height="738" transform="translate(481.44 2578.32) scale(.24)" xlink:href="arma_tu_pino59.png"/>
      <image id="_3pieza5" data-name="3pieza5" width="790" height="903" transform="translate(889.2 2571.36) scale(.24)" xlink:href="arma_tu_pino60.png"/>
      <image id="_3pieza4" data-name="3pieza4" width="476" height="793" transform="translate(713.04 2306.4) scale(.24)" xlink:href="arma_tu_pino61.png"/>
      <image id="_3pieza3" data-name="3pieza3" width="448" height="654" transform="translate(866.4 2346.72) scale(.24)" xlink:href="arma_tu_pino62.png"/>
      <image id="_3pieza2" data-name="3pieza2" width="388" height="667" transform="translate(1007.76 2348.4) scale(.24)" xlink:href="arma_tu_pino63.png"/>
      <image id="_3pieza1" data-name="3pieza1" width="499" height="525" transform="translate(1135.44 2370) scale(.24)" xlink:href="arma_tu_pino64.png"/>
      <image id="estrella3" width="1033" height="1036" transform="translate(63.84 2259.84) scale(.24)" xlink:href="arma_tu_pino65.png"/>
    </g>
  </g>
  <g id="derechaCaja">
    <g id="grupo">
      <circle cx="1160.67" cy="2161.81" r="75.86" style="fill: #5cd25b;"/>
      <g>
        <line x1="1106.17" y1="2161.81" x2="1198.5" y2="2161.81" style="fill: none; stroke: #fff; stroke-miterlimit: 10; stroke-width: 14.59px;"/>
        <polygon points="1169.43 2186.55 1194.18 2161.81 1169.43 2137.08 1190.44 2137.08 1215.17 2161.81 1190.44 2186.55 1169.43 2186.55" style="fill: #fff;"/>
      </g>
    </g>
  </g>
  <g id="izquierdaCaja">
    <g id="grupo-2" data-name="grupo">
      <circle cx="684.93" cy="2161.81" r="75.86" style="fill: #5cd25b;"/>
      <g>
        <line x1="739.43" y1="2161.81" x2="647.1" y2="2161.81" style="fill: none; stroke: #fff; stroke-miterlimit: 10; stroke-width: 14.59px;"/>
        <polygon points="676.17 2137.08 651.42 2161.81 676.17 2186.55 655.16 2186.55 630.43 2161.81 655.16 2137.08 676.17 2137.08" style="fill: #fff;"/>
      </g>
    </g>
  </g>
  <g id="derechaPino">
    <g id="grupo-3" data-name="grupo">
      <circle cx="1666.42" cy="1336.51" r="88.39" style="fill: #5cd25b;"/>
      <g>
        <line x1="1602.92" y1="1336.51" x2="1710.49" y2="1336.51" style="fill: none; stroke: #fff; stroke-miterlimit: 10; stroke-width: 17px;"/>
        <polygon points="1676.63 1365.33 1705.47 1336.51 1676.63 1307.69 1701.1 1307.69 1729.92 1336.51 1701.1 1365.33 1676.63 1365.33" style="fill: #fff;"/>
      </g>
    </g>
  </g>
  <g id="izquierdaPino">
    <g id="grupo-4" data-name="grupo">
      <circle cx="232.42" cy="1336.51" r="88.39" style="fill: #5cd25b;"/>
      <g>
        <line x1="295.92" y1="1336.51" x2="188.35" y2="1336.51" style="fill: none; stroke: #fff; stroke-miterlimit: 10; stroke-width: 17px;"/>
        <polygon points="222.21 1307.69 193.37 1336.51 222.21 1365.33 197.74 1365.33 168.92 1336.51 197.74 1307.69 222.21 1307.69" style="fill: #fff;"/>
      </g>
    </g>
  </g>
</svg>