<?xml version="1.0" encoding="UTF-8"?>
<svg id="Capa_2" data-name="Capa 2" xmlns="http://www.w3.org/2000/svg" viewBox="0 0 1574.36 549.59">
  <g id="ventana_aviso">
    <g>
      <g>
        <g>
          <path d="m1515.41,545.68H58.95c-30.4,0-55.04-24.64-55.04-55.04v-59.25c0-20.59,12.38-39.15,31.38-47.07l64.77-26.97-67.22-32.25c-17.68-8.48-28.93-26.36-28.93-45.97v-78.97c0-11.36,3.79-22.39,10.78-31.35l29.43-37.75-28.67-51.41C-2.67,47.15,18.95,5.87,56.12,3.99c.94-.05,1.88-.07,2.83-.07h1456.46c30.4,0,55.04,24.64,55.04,55.04v43.2c0,18.87-10.42,36.19-27.09,45.04l-66.8,35.45,70.71,46.03c14.45,9.41,23.17,25.48,23.17,42.73v29.86l-33.09,82.18,33.09,107.21c0,30.4-24.64,55.04-55.04,55.04Z" style="fill: #ce7424; stroke: #9b4f04; stroke-miterlimit: 10; stroke-width: 7.83px;"/>
          <path d="m44.13,131.07s179.25-82.33,551.75-24.82,974.58-20.4,974.58-20.4" style="fill: none; stroke: #bc6620; stroke-miterlimit: 10; stroke-width: 7.83px;"/>
          <path d="m100.06,357.35s303.45,36.88,517.15,0,920.15,26.08,920.15,26.08" style="fill: none; stroke: #bc6620; stroke-miterlimit: 10; stroke-width: 7.83px;"/>
          <path d="m19.35,528.85s239.45-146.87,758.47,16.83" style="fill: none; stroke: #bc6620; stroke-miterlimit: 10; stroke-width: 7.83px;"/>
          <path d="m951.14,3.91s226.77,86.3,472.29,0" style="fill: none; stroke: #bc6620; stroke-miterlimit: 10; stroke-width: 7.83px;"/>
          <path d="m1515.41,545.68H58.95c-30.4,0-55.04-24.64-55.04-55.04v-59.25c0-20.59,12.38-39.15,31.38-47.07l64.77-26.97-67.22-32.25c-17.68-8.48-28.93-26.36-28.93-45.97v-78.97c0-11.36,3.79-22.39,10.78-31.35l29.43-37.75-28.67-51.41C-2.67,47.15,18.95,5.87,56.12,3.99c.94-.05,1.88-.07,2.83-.07h1456.46c30.4,0,55.04,24.64,55.04,55.04v43.2c0,18.87-10.42,36.19-27.09,45.04l-66.8,35.45,70.71,46.03c14.45,9.41,23.17,25.48,23.17,42.73v29.86l-33.09,82.18,33.09,107.21c0,30.4-24.64,55.04-55.04,55.04Z" style="fill: none; stroke: #9b4f04; stroke-miterlimit: 10; stroke-width: 7.83px;"/>
        </g>
        <g>
          <path d="m250.16,128.28h22.49c15.74,0,26.16,8.11,26.16,20.47,0,8.01-4.25,14.29-11.49,17.76l13.03,23.65h-18.44l-10.62-20.66h-5.21v20.66h-15.93v-61.88Zm15.93,14v13.23h7.82c4.83,0,8.01-2.7,8.01-6.76s-3.19-6.47-8.01-6.47h-7.82Z" style="fill: #fff;"/>
          <path d="m302.96,167.09c0-13.61,10.33-24.62,23.84-24.62s23.94,10.04,23.94,23.65c0,1.93-.1,3.86-.29,4.83h-31.37c1.25,4.25,4.83,7.05,9.94,7.05,4.15,0,7.24-1.93,9.56-4.34l7.92,10.52c-3.28,3.96-9.85,7.43-18.05,7.43-14.67,0-25.49-11-25.49-24.52Zm16.41-5.6h15.45c-1.25-4.15-4.15-5.99-7.72-5.99-3.77,0-6.47,2.32-7.72,5.99Z" style="fill: #fff;"/>
          <path d="m381.06,157.05c-5.99,0-9.85,4.34-9.85,10.04s3.96,9.94,9.85,9.94c4.25,0,7.34-1.54,10.14-4.25l7.72,11.39c-3.57,4.25-10.62,7.43-18.25,7.43-14,0-25-11-25-24.52s11.1-24.62,24.62-24.62c8.4,0,14.77,2.9,19.11,7.43l-8.78,11.01c-2.7-2.61-5.5-3.86-9.56-3.86Z" style="fill: #fff;"/>
          <path d="m420.73,168.25c0,5.31,2.9,8.78,7.34,8.78s7.24-3.48,7.24-8.78v-24.33h15.54v25.49c0,13.32-9.07,22.2-22.78,22.2s-22.88-8.88-22.88-22.2v-25.49h15.54v24.33Z" style="fill: #fff;"/>
          <path d="m458.28,167.09c0-13.61,10.33-24.62,23.84-24.62s23.94,10.04,23.94,23.65c0,1.93-.1,3.86-.29,4.83h-31.37c1.25,4.25,4.83,7.05,9.94,7.05,4.15,0,7.24-1.93,9.56-4.34l7.92,10.52c-3.28,3.96-9.85,7.43-18.05,7.43-14.67,0-25.49-11-25.49-24.52Zm16.41-5.6h15.45c-1.25-4.15-4.15-5.99-7.72-5.99-3.77,0-6.47,2.32-7.72,5.99Z" style="fill: #fff;"/>
          <path d="m529.23,190.16h-15.54v-46.24h15.54v7.14c2.22-5.02,5.99-8.59,11.01-8.59,3.28,0,5.79.87,7.72,2.61l-6.37,14.67c-1.54-1.35-3.96-2.22-6.27-2.22-3.67,0-6.08,2.99-6.08,7.63v25Z" style="fill: #fff;"/>
          <path d="m597.39,123.74v66.42h-15.54v-4.34c-2.8,3.57-6.66,5.79-11.78,5.79-11.78,0-21.91-9.65-21.91-24.52s9.27-24.62,21.91-24.62c5.12,0,9.07,1.93,11.78,5.31v-24.04h15.54Zm-15.54,43.34c0-5.7-3.86-10.04-9.07-10.04s-9.07,4.34-9.07,10.04,3.86,9.94,9.07,9.94,9.07-4.34,9.07-9.94Z" style="fill: #fff;"/>
          <path d="m638.99,185.81c-2.8,3.57-6.66,5.79-11.78,5.79-11.78,0-21.91-9.65-21.91-24.52s9.27-24.62,21.91-24.62c5.12,0,9.07,1.93,11.78,5.31v-3.86h15.54v46.24h-15.54v-4.34Zm0-18.73c0-5.7-3.86-10.04-9.07-10.04s-9.07,4.34-9.07,10.04,3.86,9.94,9.07,9.94,9.07-4.34,9.07-9.94Z" style="fill: #fff;"/>
          <path d="m680.11,143.92h8.78v-12.55h15.54v12.55h11.78v13.61h-11.58v14.19c0,3.67,1.26,5.31,3.96,5.31,1.93,0,3.86-.97,4.83-2.22l6.76,11.49c-2.99,2.99-7.92,5.31-14.29,5.31-10.23,0-17.09-6.56-17.09-19.5v-14.58h-8.69v-13.61Z" style="fill: #fff;"/>
          <path d="m721.82,167.09c0-13.61,11.1-24.62,24.62-24.62s24.62,11,24.62,24.62-11.1,24.52-24.62,24.52-24.62-11-24.62-24.52Zm33.69,0c0-5.7-3.86-10.04-9.07-10.04s-9.07,4.34-9.07,10.04,3.86,9.94,9.07,9.94,9.07-4.34,9.07-9.94Z" style="fill: #fff;"/>
          <path d="m794.51,190.16h-15.54v-46.24h15.54v6.47c2.32-4.83,6.56-7.92,12.36-7.92,6.56,0,11.68,3.19,14.38,8.78,2.61-4.73,6.47-8.78,13.8-8.78,10.72,0,17.76,7.14,17.76,20.08v27.61h-15.54v-25.49c0-4.63-2.7-7.63-6.76-7.63s-6.85,2.99-6.85,7.63v25.49h-15.54v-25.49c0-4.63-2.7-7.63-6.76-7.63s-6.85,2.99-6.85,7.63v25.49Z" style="fill: #fff;"/>
          <path d="m894.42,185.81c-2.8,3.57-6.66,5.79-11.78,5.79-11.78,0-21.91-9.65-21.91-24.52s9.27-24.62,21.91-24.62c5.12,0,9.07,1.93,11.78,5.31v-3.86h15.54v46.24h-15.54v-4.34Zm0-18.73c0-5.7-3.86-10.04-9.07-10.04s-9.08,4.34-9.08,10.04,3.86,9.94,9.08,9.94,9.07-4.34,9.07-9.94Z" style="fill: #fff;"/>
          <path d="m936.13,190.16h-15.54v-46.24h15.54v7.14c2.22-5.02,5.99-8.59,11-8.59,3.28,0,5.79.87,7.72,2.61l-6.37,14.67c-1.54-1.35-3.96-2.22-6.27-2.22-3.67,0-6.08,2.99-6.08,7.63v25Z" style="fill: #fff;"/>
          <path d="m1003.6,157.05c-5.99,0-9.85,4.34-9.85,10.04s3.96,9.94,9.85,9.94c4.25,0,7.34-1.54,10.14-4.25l7.72,11.39c-3.57,4.25-10.62,7.43-18.25,7.43-14,0-25-11-25-24.52s11.1-24.62,24.62-24.62c8.4,0,14.77,2.9,19.11,7.43l-8.78,11.01c-2.7-2.61-5.5-3.86-9.56-3.86Z" style="fill: #fff;"/>
          <path d="m1057.28,185.81c-2.8,3.57-6.66,5.79-11.78,5.79-11.78,0-21.91-9.65-21.91-24.52s9.27-24.62,21.91-24.62c5.12,0,9.07,1.93,11.78,5.31v-3.86h15.54v46.24h-15.54v-4.34Zm0-18.73c0-5.7-3.86-10.04-9.07-10.04s-9.08,4.34-9.08,10.04,3.86,9.94,9.08,9.94,9.07-4.34,9.07-9.94Z" style="fill: #fff;"/>
          <path d="m1098.98,143.92v4.34c2.8-3.57,6.66-5.79,11.78-5.79,11.78,0,21.91,9.65,21.91,24.52s-9.27,24.62-21.91,24.62c-5.12,0-9.07-1.93-11.78-5.31v22.78h-15.54v-65.16h15.54Zm0,23.07c0,5.7,3.86,10.04,9.07,10.04s9.07-4.34,9.07-10.04-3.86-9.94-9.07-9.94-9.07,4.34-9.07,9.94Z" style="fill: #fff;"/>
          <path d="m1136.24,143.92h8.79v-12.55h15.54v12.55h11.78v13.61h-11.58v14.19c0,3.67,1.26,5.31,3.96,5.31,1.93,0,3.86-.97,4.83-2.22l6.76,11.49c-2.99,2.99-7.92,5.31-14.29,5.31-10.23,0-17.09-6.56-17.09-19.5v-14.58h-8.69v-13.61Z" style="fill: #fff;"/>
          <path d="m1197.64,168.25c0,5.31,2.9,8.78,7.34,8.78s7.24-3.48,7.24-8.78v-24.33h15.54v25.49c0,13.32-9.07,22.2-22.78,22.2s-22.88-8.88-22.88-22.2v-25.49h15.54v24.33Z" style="fill: #fff;"/>
          <path d="m1253.43,190.16h-15.54v-46.24h15.54v7.14c2.22-5.02,5.99-8.59,11-8.59,3.28,0,5.79.87,7.72,2.61l-6.37,14.67c-1.54-1.35-3.96-2.22-6.27-2.22-3.67,0-6.08,2.99-6.08,7.63v25Z" style="fill: #fff;"/>
          <path d="m1306.04,185.81c-2.8,3.57-6.66,5.79-11.78,5.79-11.78,0-21.91-9.65-21.91-24.52s9.27-24.62,21.91-24.62c5.12,0,9.07,1.93,11.78,5.31v-3.86h15.54v46.24h-15.54v-4.34Zm0-18.73c0-5.7-3.86-10.04-9.07-10.04s-9.08,4.34-9.08,10.04,3.86,9.94,9.08,9.94,9.07-4.34,9.07-9.94Z" style="fill: #fff;"/>
          <path d="m324.83,239.58v66.42h-15.54v-4.34c-2.8,3.57-6.66,5.79-11.78,5.79-11.78,0-21.91-9.65-21.91-24.52s9.27-24.62,21.91-24.62c5.12,0,9.07,1.93,11.78,5.31v-24.04h15.54Zm-15.54,43.34c0-5.7-3.86-10.04-9.07-10.04s-9.07,4.34-9.07,10.04,3.86,9.94,9.07,9.94,9.07-4.34,9.07-9.94Z" style="fill: #fff;"/>
          <path d="m332.74,282.93c0-13.61,10.33-24.62,23.84-24.62s23.94,10.04,23.94,23.65c0,1.93-.1,3.86-.29,4.83h-31.37c1.25,4.25,4.83,7.05,9.94,7.05,4.15,0,7.24-1.93,9.56-4.34l7.92,10.52c-3.28,3.96-9.85,7.43-18.05,7.43-14.67,0-25.49-11-25.49-24.52Zm16.41-5.6h15.45c-1.26-4.15-4.15-5.99-7.72-5.99-3.77,0-6.47,2.32-7.72,5.99Z" style="fill: #fff;"/>
          <path d="m423,259.76v4.34c2.8-3.57,6.66-5.79,11.78-5.79,11.78,0,21.91,9.65,21.91,24.52s-9.27,24.62-21.91,24.62c-5.12,0-9.07-1.93-11.78-5.31v22.78h-15.54v-65.16h15.54Zm0,23.07c0,5.7,3.86,10.04,9.07,10.04s9.07-4.34,9.07-10.04-3.86-9.94-9.07-9.94-9.07,4.34-9.07,9.94Z" style="fill: #fff;"/>
          <path d="m495.59,301.66c-2.8,3.57-6.66,5.79-11.78,5.79-11.78,0-21.91-9.65-21.91-24.52s9.27-24.62,21.91-24.62c5.12,0,9.07,1.93,11.78,5.31v-3.86h15.54v46.24h-15.54v-4.34Zm0-18.73c0-5.7-3.86-10.04-9.07-10.04s-9.07,4.34-9.07,10.04,3.86,9.94,9.07,9.94,9.07-4.34,9.07-9.94Z" style="fill: #fff;"/>
          <path d="m537.29,306h-15.54v-46.24h15.54v5.7c2.32-4.54,6.47-7.14,11.97-7.14,10.52,0,17.18,7.53,17.18,20.08v27.61h-15.54v-25.49c0-4.63-2.7-7.63-6.76-7.63s-6.85,2.99-6.85,7.63v25.49Z" style="fill: #fff;"/>
          <path d="m572.72,259.76h8.78v-12.55h15.54v12.55h11.78v13.61h-11.58v14.19c0,3.67,1.26,5.31,3.96,5.31,1.93,0,3.86-.97,4.83-2.22l6.76,11.49c-2.99,2.99-7.92,5.31-14.29,5.31-10.23,0-17.09-6.56-17.09-19.5v-14.58h-8.69v-13.61Z" style="fill: #fff;"/>
          <path d="m648.12,301.66c-2.8,3.57-6.66,5.79-11.78,5.79-11.78,0-21.91-9.65-21.91-24.52s9.27-24.62,21.91-24.62c5.12,0,9.07,1.93,11.78,5.31v-3.86h15.54v46.24h-15.54v-4.34Zm0-18.73c0-5.7-3.86-10.04-9.07-10.04s-9.07,4.34-9.07,10.04,3.86,9.94,9.07,9.94,9.07-4.34,9.07-9.94Z" style="fill: #fff;"/>
          <path d="m674.28,239.58h15.54v66.42h-15.54v-66.42Z" style="fill: #fff;"/>
          <path d="m700.44,239.58h15.54v66.42h-15.54v-66.42Z" style="fill: #fff;"/>
          <path d="m757.59,301.66c-2.8,3.57-6.66,5.79-11.78,5.79-11.78,0-21.91-9.65-21.91-24.52s9.27-24.62,21.91-24.62c5.12,0,9.07,1.93,11.78,5.31v-3.86h15.54v46.24h-15.54v-4.34Zm0-18.73c0-5.7-3.86-10.04-9.07-10.04s-9.07,4.34-9.07,10.04,3.86,9.94,9.07,9.94,9.07-4.34,9.07-9.94Z" style="fill: #fff;"/>
          <path d="m834.04,301.66c-2.8,3.57-6.66,5.79-11.78,5.79-11.78,0-21.91-9.65-21.91-24.52s9.27-24.62,21.91-24.62c5.12,0,9.07,1.93,11.78,5.31v-3.86h15.54v46.24h-15.54v-4.34Zm0-18.73c0-5.7-3.86-10.04-9.07-10.04s-9.08,4.34-9.08,10.04,3.86,9.94,9.08,9.94,9.07-4.34,9.07-9.94Z" style="fill: #fff;"/>
          <path d="m860.2,239.58h15.54v66.42h-15.54v-66.42Z" style="fill: #fff;"/>
          <path d="m901.32,259.76h8.79v-12.55h15.54v12.55h11.78v13.61h-11.58v14.19c0,3.67,1.26,5.31,3.96,5.31,1.93,0,3.86-.97,4.83-2.22l6.76,11.49c-2.99,2.99-7.92,5.31-14.29,5.31-10.23,0-17.09-6.56-17.09-19.5v-14.58h-8.69v-13.61Z" style="fill: #fff;"/>
          <path d="m943.03,282.93c0-13.61,10.33-24.62,23.84-24.62s23.94,10.04,23.94,23.65c0,1.93-.1,3.86-.29,4.83h-31.37c1.26,4.25,4.83,7.05,9.94,7.05,4.15,0,7.24-1.93,9.56-4.34l7.92,10.52c-3.28,3.96-9.85,7.43-18.05,7.43-14.67,0-25.49-11-25.49-24.52Zm16.41-5.6h15.45c-1.26-4.15-4.15-5.99-7.72-5.99-3.76,0-6.47,2.32-7.72,5.99Z" style="fill: #fff;"/>
          <path d="m1013.98,306h-15.54v-46.24h15.54v7.14c2.22-5.02,5.99-8.59,11-8.59,3.28,0,5.79.87,7.72,2.61l-6.37,14.67c-1.54-1.35-3.96-2.22-6.27-2.22-3.67,0-6.08,2.99-6.08,7.63v25Z" style="fill: #fff;"/>
          <path d="m1055.01,306h-15.54v-46.24h15.54v6.47c2.32-4.83,6.56-7.92,12.36-7.92,6.56,0,11.68,3.19,14.38,8.78,2.61-4.73,6.47-8.78,13.8-8.78,10.72,0,17.76,7.14,17.76,20.08v27.61h-15.54v-25.49c0-4.63-2.7-7.63-6.76-7.63s-6.85,2.99-6.85,7.63v25.49h-15.54v-25.49c0-4.63-2.7-7.63-6.76-7.63s-6.85,2.99-6.85,7.63v25.49Z" style="fill: #fff;"/>
          <path d="m1122.97,246.92c0-4.83,3.86-8.78,8.69-8.78s8.79,3.96,8.79,8.78-3.96,8.69-8.79,8.69-8.69-3.86-8.69-8.69Zm16.51,59.08h-15.54v-46.24h15.54v46.24Z" style="fill: #fff;"/>
          <path d="m1165.63,306h-15.54v-46.24h15.54v5.7c2.32-4.54,6.47-7.14,11.97-7.14,10.52,0,17.18,7.53,17.18,20.08v27.61h-15.54v-25.49c0-4.63-2.7-7.63-6.76-7.63s-6.85,2.99-6.85,7.63v25.49Z" style="fill: #fff;"/>
          <path d="m1236.4,301.66c-2.8,3.57-6.66,5.79-11.78,5.79-11.78,0-21.91-9.65-21.91-24.52s9.27-24.62,21.91-24.62c5.12,0,9.07,1.93,11.78,5.31v-3.86h15.54v46.24h-15.54v-4.34Zm0-18.73c0-5.7-3.86-10.04-9.07-10.04s-9.08,4.34-9.08,10.04,3.86,9.94,9.08,9.94,9.07-4.34,9.07-9.94Z" style="fill: #fff;"/>
          <path d="m1278.1,306h-15.54v-46.24h15.54v7.14c2.22-5.02,5.99-8.59,11-8.59,3.28,0,5.79.87,7.72,2.61l-6.37,14.67c-1.54-1.35-3.96-2.22-6.27-2.22-3.67,0-6.08,2.99-6.08,7.63v25Z" style="fill: #fff;"/>
          <path d="m423.39,355.43v66.42h-15.54v-4.34c-2.8,3.57-6.66,5.79-11.78,5.79-11.78,0-21.91-9.65-21.91-24.52s9.27-24.62,21.91-24.62c5.12,0,9.07,1.93,11.78,5.31v-24.04h15.54Zm-15.54,43.34c0-5.7-3.86-10.04-9.07-10.04s-9.07,4.34-9.07,10.04,3.86,9.94,9.07,9.94,9.07-4.34,9.07-9.94Z" style="fill: #fff;"/>
          <path d="m431.3,398.77c0-13.61,10.33-24.62,23.84-24.62s23.94,10.04,23.94,23.65c0,1.93-.1,3.86-.29,4.83h-31.37c1.25,4.25,4.83,7.05,9.94,7.05,4.15,0,7.24-1.93,9.56-4.34l7.92,10.52c-3.28,3.96-9.85,7.43-18.05,7.43-14.67,0-25.49-11-25.49-24.52Zm16.41-5.6h15.45c-1.26-4.15-4.15-5.99-7.72-5.99-3.77,0-6.47,2.32-7.72,5.99Z" style="fill: #fff;"/>
          <path d="m552.55,355.43v66.42h-15.54v-4.34c-2.8,3.57-6.66,5.79-11.78,5.79-11.78,0-21.91-9.65-21.91-24.52s9.27-24.62,21.91-24.62c5.12,0,9.07,1.93,11.78,5.31v-24.04h15.54Zm-15.54,43.34c0-5.7-3.86-10.04-9.07-10.04s-9.07,4.34-9.07,10.04,3.86,9.94,9.07,9.94,9.07-4.34,9.07-9.94Z" style="fill: #fff;"/>
          <path d="m560.46,398.77c0-13.61,10.33-24.62,23.84-24.62s23.94,10.04,23.94,23.65c0,1.93-.1,3.86-.29,4.83h-31.37c1.25,4.25,4.83,7.05,9.94,7.05,4.15,0,7.24-1.93,9.56-4.34l7.92,10.52c-3.28,3.96-9.85,7.43-18.05,7.43-14.67,0-25.49-11-25.49-24.52Zm16.41-5.6h15.45c-1.25-4.15-4.15-5.99-7.72-5.99-3.77,0-6.47,2.32-7.72,5.99Z" style="fill: #fff;"/>
          <path d="m638.56,388.73c-5.99,0-9.85,4.34-9.85,10.04s3.96,9.94,9.85,9.94c4.25,0,7.34-1.54,10.14-4.25l7.72,11.39c-3.57,4.25-10.62,7.43-18.25,7.43-14,0-25-11-25-24.52s11.1-24.62,24.62-24.62c8.4,0,14.77,2.9,19.11,7.43l-8.78,11.01c-2.7-2.61-5.5-3.86-9.56-3.86Z" style="fill: #fff;"/>
          <path d="m658.54,398.77c0-13.61,11.1-24.62,24.62-24.62s24.62,11,24.62,24.62-11.1,24.52-24.62,24.52-24.62-11-24.62-24.52Zm33.69,0c0-5.7-3.86-10.04-9.07-10.04s-9.07,4.34-9.07,10.04,3.86,9.94,9.07,9.94,9.07-4.34,9.07-9.94Z" style="fill: #fff;"/>
          <path d="m731.23,421.84h-15.54v-46.24h15.54v7.14c2.22-5.02,5.99-8.59,11-8.59,3.28,0,5.79.87,7.72,2.61l-6.37,14.67c-1.54-1.35-3.96-2.22-6.27-2.22-3.67,0-6.08,2.99-6.08,7.63v25Z" style="fill: #fff;"/>
          <path d="m783.84,417.5c-2.8,3.57-6.66,5.79-11.78,5.79-11.78,0-21.91-9.65-21.91-24.52s9.27-24.62,21.91-24.62c5.12,0,9.07,1.93,11.78,5.31v-3.86h15.54v46.24h-15.54v-4.34Zm0-18.73c0-5.7-3.86-10.04-9.07-10.04s-9.07,4.34-9.07,10.04,3.86,9.94,9.07,9.94,9.07-4.34,9.07-9.94Z" style="fill: #fff;"/>
          <path d="m825.55,421.84h-15.54v-46.24h15.54v7.14c2.22-5.02,5.99-8.59,11-8.59,3.28,0,5.79.87,7.72,2.61l-6.37,14.67c-1.54-1.35-3.96-2.22-6.27-2.22-3.67,0-6.08,2.99-6.08,7.63v25Z" style="fill: #fff;"/>
          <path d="m865.99,375.6h8.79v-12.55h15.54v12.55h11.78v13.61h-11.58v14.19c0,3.67,1.26,5.31,3.96,5.31,1.93,0,3.86-.97,4.83-2.22l6.76,11.49c-2.99,2.99-7.92,5.31-14.29,5.31-10.23,0-17.09-6.56-17.09-19.5v-14.58h-8.69v-13.61Z" style="fill: #fff;"/>
          <path d="m927.39,399.93c0,5.31,2.9,8.78,7.34,8.78s7.24-3.48,7.24-8.78v-24.33h15.54v25.49c0,13.32-9.07,22.2-22.78,22.2s-22.88-8.88-22.88-22.2v-25.49h15.54v24.33Z" style="fill: #fff;"/>
          <path d="m1002.49,375.6v4.34c2.8-3.57,6.66-5.79,11.78-5.79,11.78,0,21.91,9.65,21.91,24.52s-9.27,24.62-21.91,24.62c-5.12,0-9.07-1.93-11.78-5.31v22.78h-15.54v-65.16h15.54Zm0,23.07c0,5.7,3.86,10.04,9.07,10.04s9.07-4.34,9.07-10.04-3.86-9.94-9.07-9.94-9.07,4.34-9.07,9.94Z" style="fill: #fff;"/>
          <path d="m1043.13,362.76c0-4.83,3.86-8.78,8.69-8.78s8.79,3.96,8.79,8.78-3.96,8.69-8.79,8.69-8.69-3.86-8.69-8.69Zm16.51,59.08h-15.54v-46.24h15.54v46.24Z" style="fill: #fff;"/>
          <path d="m1085.8,421.84h-15.54v-46.24h15.54v5.7c2.32-4.54,6.47-7.14,11.97-7.14,10.52,0,17.18,7.53,17.18,20.08v27.61h-15.54v-25.49c0-4.63-2.7-7.63-6.76-7.63s-6.85,2.99-6.85,7.63v25.49Z" style="fill: #fff;"/>
          <path d="m1122.87,398.77c0-13.61,11.1-24.62,24.62-24.62s24.62,11,24.62,24.62-11.1,24.52-24.62,24.52-24.62-11-24.62-24.52Zm33.69,0c0-5.7-3.86-10.04-9.07-10.04s-9.08,4.34-9.08,10.04,3.86,9.94,9.08,9.94,9.07-4.34,9.07-9.94Z" style="fill: #fff;"/>
          <path d="m1177.12,413.73c0-5.31,4.25-9.65,9.56-9.65s9.65,4.34,9.65,9.65-4.34,9.56-9.65,9.56-9.56-4.25-9.56-9.56Z" style="fill: #fff;"/>
        </g>
      </g>
      <g id="x">
        <path d="m1482.1,38.97l16.33,16.33c8.67,8.67,17.34,17.34,26.02,26.02,1.99,1.99,3.97,3.97,5.96,5.96s5.36,2.03,7.23,0,2.02-5.21,0-7.23l-16.33-16.33c-8.67-8.67-17.34-17.34-26.02-26.02l-5.96-5.96c-1.89-1.89-5.36-2.03-7.23,0s-2.02,5.21,0,7.23h0Z" style="fill: #fff;"/>
        <path d="m1530.41,31.74c-5.44,5.44-10.88,10.88-16.33,16.33-8.67,8.67-17.34,17.34-26.02,26.02l-5.96,5.96c-1.89,1.89-2.03,5.36,0,7.23s5.21,2.02,7.23,0c5.44-5.44,10.88-10.88,16.33-16.33,8.67-8.67,17.34-17.34,26.02-26.02l5.96-5.96c1.89-1.89,2.03-5.36,0-7.23s-5.21-2.02-7.23,0h0Z" style="fill: #fff;"/>
      </g>
    </g>
  </g>
</svg>